<mxfile host="Electron" agent="Mozilla/5.0 (X11; Linux x86_64) AppleWebKit/537.36 (KHTML, like Gecko) draw.io/24.7.8 Chrome/128.0.6613.36 Electron/32.0.1 Safari/537.36" version="24.7.8">
  <diagram name="PÃ¡gina-1" id="oE5SToJG6d0fqBrR_LVp">
    <mxGraphModel dx="733" dy="456" grid="1" gridSize="10" guides="1" tooltips="1" connect="1" arrows="1" fold="1" page="1" pageScale="1" pageWidth="1169" pageHeight="827" math="0" shadow="0">
      <root>
        <mxCell id="0" />
        <mxCell id="1" parent="0" />
        <mxCell id="XwNhUvzAYBpl0VFSliFA-11" value="Name" style="ellipse;whiteSpace=wrap;html=1;fillColor=none;" vertex="1" parent="1">
          <mxGeometry x="220" y="220" width="50" height="30" as="geometry" />
        </mxCell>
        <mxCell id="XwNhUvzAYBpl0VFSliFA-12" value="Number" style="ellipse;whiteSpace=wrap;html=1;fillColor=none;" vertex="1" parent="1">
          <mxGeometry x="296.24" y="220" width="50" height="30" as="geometry" />
        </mxCell>
        <mxCell id="SnB1N_KesckS_-LBV5Pf-41" value="&lt;i&gt;&lt;font style=&quot;font-size: 16px;&quot;&gt;IS_LOCATED&lt;/font&gt;&lt;/i&gt;" style="html=1;whiteSpace=wrap;aspect=fixed;shape=isoRectangle;fillColor=none;" parent="1" vertex="1">
          <mxGeometry x="246.24" y="460" width="150.01" height="90" as="geometry" />
        </mxCell>
        <mxCell id="SnB1N_KesckS_-LBV5Pf-52" value="(1, n)" style="text;html=1;align=center;verticalAlign=middle;whiteSpace=wrap;rounded=0;" parent="1" vertex="1">
          <mxGeometry x="336.25" y="430" width="60" height="30" as="geometry" />
        </mxCell>
        <mxCell id="SnB1N_KesckS_-LBV5Pf-58" style="edgeStyle=orthogonalEdgeStyle;rounded=0;orthogonalLoop=1;jettySize=auto;html=1;exitX=0.5;exitY=1;exitDx=0;exitDy=0;" parent="1" edge="1">
          <mxGeometry relative="1" as="geometry">
            <mxPoint x="299.9999999999999" y="330" as="sourcePoint" />
            <mxPoint x="299.9999999999999" y="330" as="targetPoint" />
          </mxGeometry>
        </mxCell>
        <mxCell id="SnB1N_KesckS_-LBV5Pf-65" value="" style="endArrow=none;html=1;rounded=0;strokeWidth=1.5;strokeColor=#00ff00;jumpSize=6;endSize=6;" parent="1" edge="1">
          <mxGeometry width="50" height="50" relative="1" as="geometry">
            <mxPoint x="240" y="242" as="sourcePoint" />
            <mxPoint x="250" y="242" as="targetPoint" />
          </mxGeometry>
        </mxCell>
        <mxCell id="pcUj4MwKIDvx0GaRPvgX-1" value="&lt;span style=&quot;font-size: 20px;&quot;&gt;&lt;i&gt;BUILDING&lt;/i&gt;&lt;/span&gt;" style="rounded=0;whiteSpace=wrap;html=1;fillColor=none;align=center;" parent="1" vertex="1">
          <mxGeometry x="241.25" y="620" width="160" height="78" as="geometry" />
        </mxCell>
        <mxCell id="pcUj4MwKIDvx0GaRPvgX-3" value="&lt;i style=&quot;font-size: 20px;&quot;&gt;DEPARTAMENT&lt;/i&gt;" style="rounded=0;whiteSpace=wrap;html=1;fillColor=none;align=center;" parent="1" vertex="1">
          <mxGeometry x="241.25" y="280" width="160" height="78" as="geometry" />
        </mxCell>
        <mxCell id="pcUj4MwKIDvx0GaRPvgX-4" value="" style="endArrow=none;html=1;rounded=0;exitX=0.499;exitY=0.024;exitDx=0;exitDy=0;exitPerimeter=0;" parent="1" source="SnB1N_KesckS_-LBV5Pf-41" target="pcUj4MwKIDvx0GaRPvgX-3" edge="1">
          <mxGeometry width="50" height="50" relative="1" as="geometry">
            <mxPoint x="370" y="460" as="sourcePoint" />
            <mxPoint x="420" y="410" as="targetPoint" />
          </mxGeometry>
        </mxCell>
        <mxCell id="pcUj4MwKIDvx0GaRPvgX-5" value="" style="endArrow=none;html=1;rounded=0;exitX=0.5;exitY=0;exitDx=0;exitDy=0;entryX=0.501;entryY=0.978;entryDx=0;entryDy=0;entryPerimeter=0;" parent="1" source="pcUj4MwKIDvx0GaRPvgX-1" target="SnB1N_KesckS_-LBV5Pf-41" edge="1">
          <mxGeometry width="50" height="50" relative="1" as="geometry">
            <mxPoint x="321.08" y="684" as="sourcePoint" />
            <mxPoint x="321" y="558" as="targetPoint" />
          </mxGeometry>
        </mxCell>
        <mxCell id="pcUj4MwKIDvx0GaRPvgX-6" value="(1, 1)" style="text;html=1;align=center;verticalAlign=middle;whiteSpace=wrap;rounded=0;" parent="1" vertex="1">
          <mxGeometry x="336.25" y="550" width="60" height="30" as="geometry" />
        </mxCell>
        <mxCell id="pcUj4MwKIDvx0GaRPvgX-17" value="" style="endArrow=none;html=1;rounded=0;exitX=1;exitY=0.5;exitDx=0;exitDy=0;entryX=0.002;entryY=0.828;entryDx=0;entryDy=0;entryPerimeter=0;" parent="1" source="XwNhUvzAYBpl0VFSliFA-7" target="pcUj4MwKIDvx0GaRPvgX-1" edge="1">
          <mxGeometry width="50" height="50" relative="1" as="geometry">
            <mxPoint x="201" y="685" as="sourcePoint" />
            <mxPoint x="240" y="685" as="targetPoint" />
          </mxGeometry>
        </mxCell>
        <mxCell id="pcUj4MwKIDvx0GaRPvgX-18" value="" style="endArrow=none;html=1;rounded=0;exitX=1;exitY=0.5;exitDx=0;exitDy=0;entryX=0.002;entryY=0.189;entryDx=0;entryDy=0;entryPerimeter=0;" parent="1" target="pcUj4MwKIDvx0GaRPvgX-1" edge="1" source="XwNhUvzAYBpl0VFSliFA-3">
          <mxGeometry width="50" height="50" relative="1" as="geometry">
            <mxPoint x="201" y="634.8" as="sourcePoint" />
            <mxPoint x="240" y="635" as="targetPoint" />
          </mxGeometry>
        </mxCell>
        <mxCell id="pcUj4MwKIDvx0GaRPvgX-19" value="" style="endArrow=none;html=1;rounded=0;exitX=0.5;exitY=1;exitDx=0;exitDy=0;entryX=0.5;entryY=0;entryDx=0;entryDy=0;" parent="1" source="XwNhUvzAYBpl0VFSliFA-3" target="XwNhUvzAYBpl0VFSliFA-7" edge="1">
          <mxGeometry width="50" height="50" relative="1" as="geometry">
            <mxPoint x="196" y="640" as="sourcePoint" />
            <mxPoint x="196" y="680" as="targetPoint" />
          </mxGeometry>
        </mxCell>
        <mxCell id="pcUj4MwKIDvx0GaRPvgX-20" value="" style="endArrow=none;html=1;rounded=0;exitX=1;exitY=0.5;exitDx=0;exitDy=0;entryX=0;entryY=0.5;entryDx=0;entryDy=0;" parent="1" source="XwNhUvzAYBpl0VFSliFA-1" target="XwNhUvzAYBpl0VFSliFA-3" edge="1">
          <mxGeometry width="50" height="50" relative="1" as="geometry">
            <mxPoint x="171.99999999999784" y="634.9999999999999" as="sourcePoint" />
            <mxPoint x="191" y="635" as="targetPoint" />
            <Array as="points">
              <mxPoint x="180" y="635" />
            </Array>
          </mxGeometry>
        </mxCell>
        <mxCell id="pcUj4MwKIDvx0GaRPvgX-21" value="" style="endArrow=none;html=1;rounded=0;exitX=1;exitY=0.5;exitDx=0;exitDy=0;entryX=0;entryY=0.5;entryDx=0;entryDy=0;" parent="1" source="XwNhUvzAYBpl0VFSliFA-2" target="XwNhUvzAYBpl0VFSliFA-7" edge="1">
          <mxGeometry width="50" height="50" relative="1" as="geometry">
            <mxPoint x="172.0000000000004" y="685" as="sourcePoint" />
            <mxPoint x="191" y="685" as="targetPoint" />
          </mxGeometry>
        </mxCell>
        <mxCell id="XwNhUvzAYBpl0VFSliFA-1" value="City" style="ellipse;whiteSpace=wrap;html=1;fillColor=none;" vertex="1" parent="1">
          <mxGeometry x="127" y="625" width="40" height="20" as="geometry" />
        </mxCell>
        <mxCell id="XwNhUvzAYBpl0VFSliFA-2" value="Number" style="ellipse;whiteSpace=wrap;html=1;fillColor=none;" vertex="1" parent="1">
          <mxGeometry x="122" y="670" width="50" height="30" as="geometry" />
        </mxCell>
        <mxCell id="XwNhUvzAYBpl0VFSliFA-3" value="" style="ellipse;whiteSpace=wrap;html=1;fillColor=#FFFFFF;" vertex="1" parent="1">
          <mxGeometry x="189" y="630" width="14" height="10" as="geometry" />
        </mxCell>
        <mxCell id="XwNhUvzAYBpl0VFSliFA-7" value="" style="ellipse;whiteSpace=wrap;html=1;fillColor=#ffffff;strokeColor=#FFFFFF;" vertex="1" parent="1">
          <mxGeometry x="189" y="680" width="14" height="10" as="geometry" />
        </mxCell>
        <mxCell id="XwNhUvzAYBpl0VFSliFA-8" value="" style="endArrow=none;html=1;rounded=0;entryX=0.5;entryY=0;entryDx=0;entryDy=0;exitX=0.5;exitY=1;exitDx=0;exitDy=0;" edge="1" parent="1" source="XwNhUvzAYBpl0VFSliFA-9" target="XwNhUvzAYBpl0VFSliFA-3">
          <mxGeometry width="50" height="50" relative="1" as="geometry">
            <mxPoint x="190" y="620" as="sourcePoint" />
            <mxPoint x="199" y="645" as="targetPoint" />
            <Array as="points" />
          </mxGeometry>
        </mxCell>
        <mxCell id="XwNhUvzAYBpl0VFSliFA-9" value="" style="ellipse;whiteSpace=wrap;html=1;fillColor=#FFFFFF;" vertex="1" parent="1">
          <mxGeometry x="187" y="600" width="18" height="10" as="geometry" />
        </mxCell>
        <mxCell id="XwNhUvzAYBpl0VFSliFA-13" value="Annual_Budget" style="ellipse;whiteSpace=wrap;html=1;fillColor=none;" vertex="1" parent="1">
          <mxGeometry x="370" y="220" width="90" height="30" as="geometry" />
        </mxCell>
        <mxCell id="XwNhUvzAYBpl0VFSliFA-14" value="" style="endArrow=none;html=1;rounded=0;strokeWidth=1.5;strokeColor=#00ff00;jumpSize=6;endSize=6;" edge="1" parent="1">
          <mxGeometry width="50" height="50" relative="1" as="geometry">
            <mxPoint x="316.24" y="242" as="sourcePoint" />
            <mxPoint x="326.24" y="242" as="targetPoint" />
          </mxGeometry>
        </mxCell>
        <mxCell id="XwNhUvzAYBpl0VFSliFA-16" value="" style="endArrow=none;html=1;rounded=0;entryX=0.5;entryY=1;entryDx=0;entryDy=0;exitX=0.25;exitY=0;exitDx=0;exitDy=0;" edge="1" parent="1" source="pcUj4MwKIDvx0GaRPvgX-3" target="XwNhUvzAYBpl0VFSliFA-11">
          <mxGeometry width="50" height="50" relative="1" as="geometry">
            <mxPoint x="246.24" y="358" as="sourcePoint" />
            <mxPoint x="246.24" y="254" as="targetPoint" />
          </mxGeometry>
        </mxCell>
        <mxCell id="XwNhUvzAYBpl0VFSliFA-17" value="" style="endArrow=none;html=1;rounded=0;entryX=0.468;entryY=0.981;entryDx=0;entryDy=0;exitX=0.5;exitY=0;exitDx=0;exitDy=0;entryPerimeter=0;" edge="1" parent="1" source="pcUj4MwKIDvx0GaRPvgX-3" target="XwNhUvzAYBpl0VFSliFA-12">
          <mxGeometry width="50" height="50" relative="1" as="geometry">
            <mxPoint x="291" y="290" as="sourcePoint" />
            <mxPoint x="255" y="260" as="targetPoint" />
          </mxGeometry>
        </mxCell>
        <mxCell id="XwNhUvzAYBpl0VFSliFA-18" value="" style="endArrow=none;html=1;rounded=0;entryX=0.5;entryY=1;entryDx=0;entryDy=0;exitX=0.75;exitY=0;exitDx=0;exitDy=0;" edge="1" parent="1" source="pcUj4MwKIDvx0GaRPvgX-3" target="XwNhUvzAYBpl0VFSliFA-13">
          <mxGeometry width="50" height="50" relative="1" as="geometry">
            <mxPoint x="331" y="290" as="sourcePoint" />
            <mxPoint x="330" y="259" as="targetPoint" />
          </mxGeometry>
        </mxCell>
        <mxCell id="XwNhUvzAYBpl0VFSliFA-20" value="&lt;i style=&quot;font-size: 20px;&quot;&gt;EMPLOYEE&lt;/i&gt;" style="rounded=0;whiteSpace=wrap;html=1;fillColor=none;align=center;" vertex="1" parent="1">
          <mxGeometry x="750" y="280" width="160" height="78" as="geometry" />
        </mxCell>
        <mxCell id="XwNhUvzAYBpl0VFSliFA-22" value="&lt;span style=&quot;font-size: 16px;&quot;&gt;&lt;i&gt;WORKS&lt;/i&gt;&lt;/span&gt;" style="html=1;whiteSpace=wrap;aspect=fixed;shape=isoRectangle;fillColor=none;" vertex="1" parent="1">
          <mxGeometry x="509" y="274" width="150.01" height="90" as="geometry" />
        </mxCell>
        <mxCell id="XwNhUvzAYBpl0VFSliFA-23" value="" style="endArrow=none;html=1;rounded=0;exitX=1;exitY=0.5;exitDx=0;exitDy=0;entryX=0.002;entryY=0.5;entryDx=0;entryDy=0;entryPerimeter=0;" edge="1" parent="1" source="XwNhUvzAYBpl0VFSliFA-30" target="XwNhUvzAYBpl0VFSliFA-22">
          <mxGeometry width="50" height="50" relative="1" as="geometry">
            <mxPoint x="331" y="472" as="sourcePoint" />
            <mxPoint x="331" y="368" as="targetPoint" />
          </mxGeometry>
        </mxCell>
        <mxCell id="XwNhUvzAYBpl0VFSliFA-24" value="" style="endArrow=none;html=1;rounded=0;entryX=0;entryY=0.5;entryDx=0;entryDy=0;exitX=0.993;exitY=0.502;exitDx=0;exitDy=0;exitPerimeter=0;" edge="1" parent="1" source="XwNhUvzAYBpl0VFSliFA-22" target="XwNhUvzAYBpl0VFSliFA-20">
          <mxGeometry width="50" height="50" relative="1" as="geometry">
            <mxPoint x="660" y="319" as="sourcePoint" />
            <mxPoint x="728" y="329" as="targetPoint" />
            <Array as="points">
              <mxPoint x="710" y="320" />
            </Array>
          </mxGeometry>
        </mxCell>
        <mxCell id="XwNhUvzAYBpl0VFSliFA-26" value="(1, n)" style="text;html=1;align=center;verticalAlign=middle;whiteSpace=wrap;rounded=0;" vertex="1" parent="1">
          <mxGeometry x="460" y="324" width="60" height="30" as="geometry" />
        </mxCell>
        <mxCell id="XwNhUvzAYBpl0VFSliFA-27" value="(1, 1)" style="text;html=1;align=center;verticalAlign=middle;whiteSpace=wrap;rounded=0;" vertex="1" parent="1">
          <mxGeometry x="659.01" y="324" width="60" height="30" as="geometry" />
        </mxCell>
        <mxCell id="XwNhUvzAYBpl0VFSliFA-29" value="Number" style="ellipse;whiteSpace=wrap;html=1;fillColor=none;" vertex="1" parent="1">
          <mxGeometry x="805" y="420" width="50" height="30" as="geometry" />
        </mxCell>
        <mxCell id="XwNhUvzAYBpl0VFSliFA-31" value="" style="endArrow=none;html=1;rounded=0;exitX=1;exitY=0.5;exitDx=0;exitDy=0;" edge="1" parent="1" source="pcUj4MwKIDvx0GaRPvgX-3">
          <mxGeometry width="50" height="50" relative="1" as="geometry">
            <mxPoint x="401" y="319" as="sourcePoint" />
            <mxPoint x="430" y="319" as="targetPoint" />
          </mxGeometry>
        </mxCell>
        <mxCell id="XwNhUvzAYBpl0VFSliFA-30" value="" style="ellipse;whiteSpace=wrap;html=1;fillColor=#FFFFFF;" vertex="1" parent="1">
          <mxGeometry x="430" y="314" width="14" height="10" as="geometry" />
        </mxCell>
        <mxCell id="XwNhUvzAYBpl0VFSliFA-32" value="" style="ellipse;whiteSpace=wrap;html=1;fillColor=#FFFFFF;" vertex="1" parent="1">
          <mxGeometry x="870" y="394" width="14" height="10" as="geometry" />
        </mxCell>
        <mxCell id="XwNhUvzAYBpl0VFSliFA-34" value="" style="endArrow=none;html=1;rounded=0;entryX=0.5;entryY=0;entryDx=0;entryDy=0;exitX=0.5;exitY=1;exitDx=0;exitDy=0;" edge="1" parent="1" source="XwNhUvzAYBpl0VFSliFA-20" target="XwNhUvzAYBpl0VFSliFA-37">
          <mxGeometry width="50" height="50" relative="1" as="geometry">
            <mxPoint x="668" y="329" as="sourcePoint" />
            <mxPoint x="760" y="329" as="targetPoint" />
            <Array as="points" />
          </mxGeometry>
        </mxCell>
        <mxCell id="XwNhUvzAYBpl0VFSliFA-35" value="" style="endArrow=none;html=1;rounded=0;entryX=0;entryY=0.5;entryDx=0;entryDy=0;exitX=0.5;exitY=1;exitDx=0;exitDy=0;" edge="1" parent="1" source="XwNhUvzAYBpl0VFSliFA-30" target="XwNhUvzAYBpl0VFSliFA-37">
          <mxGeometry width="50" height="50" relative="1" as="geometry">
            <mxPoint x="440" y="340" as="sourcePoint" />
            <mxPoint x="830" y="390" as="targetPoint" />
            <Array as="points">
              <mxPoint x="437" y="400" />
            </Array>
          </mxGeometry>
        </mxCell>
        <mxCell id="XwNhUvzAYBpl0VFSliFA-37" value="" style="ellipse;whiteSpace=wrap;html=1;fillColor=#FFFFFF;" vertex="1" parent="1">
          <mxGeometry x="823" y="394" width="14" height="10" as="geometry" />
        </mxCell>
        <mxCell id="XwNhUvzAYBpl0VFSliFA-39" value="" style="endArrow=none;html=1;rounded=0;entryX=1;entryY=0.5;entryDx=0;entryDy=0;exitX=0;exitY=0.5;exitDx=0;exitDy=0;" edge="1" parent="1" source="XwNhUvzAYBpl0VFSliFA-32" target="XwNhUvzAYBpl0VFSliFA-37">
          <mxGeometry width="50" height="50" relative="1" as="geometry">
            <mxPoint x="840" y="368" as="sourcePoint" />
            <mxPoint x="840" y="404" as="targetPoint" />
            <Array as="points" />
          </mxGeometry>
        </mxCell>
        <mxCell id="XwNhUvzAYBpl0VFSliFA-40" value="" style="endArrow=none;html=1;rounded=0;exitX=0.5;exitY=0;exitDx=0;exitDy=0;entryX=0.5;entryY=1;entryDx=0;entryDy=0;" edge="1" parent="1" source="XwNhUvzAYBpl0VFSliFA-29" target="XwNhUvzAYBpl0VFSliFA-37">
          <mxGeometry width="50" height="50" relative="1" as="geometry">
            <mxPoint x="880" y="409" as="sourcePoint" />
            <mxPoint x="830" y="410" as="targetPoint" />
            <Array as="points" />
          </mxGeometry>
        </mxCell>
        <mxCell id="XwNhUvzAYBpl0VFSliFA-41" value="&lt;span style=&quot;font-size: 16px;&quot;&gt;&lt;i&gt;IS_IN_CHARGE_OF&lt;/i&gt;&lt;/span&gt;" style="html=1;whiteSpace=wrap;aspect=fixed;shape=isoRectangle;fillColor=none;" vertex="1" parent="1">
          <mxGeometry x="738.33" y="130" width="183.35" height="110" as="geometry" />
        </mxCell>
        <mxCell id="XwNhUvzAYBpl0VFSliFA-42" value="" style="endArrow=none;html=1;rounded=0;entryX=0;entryY=0.25;entryDx=0;entryDy=0;exitX=0.007;exitY=0.502;exitDx=0;exitDy=0;exitPerimeter=0;" edge="1" parent="1" source="XwNhUvzAYBpl0VFSliFA-41" target="XwNhUvzAYBpl0VFSliFA-20">
          <mxGeometry width="50" height="50" relative="1" as="geometry">
            <mxPoint x="670" y="200" as="sourcePoint" />
            <mxPoint x="760" y="329" as="targetPoint" />
            <Array as="points">
              <mxPoint x="700" y="185" />
              <mxPoint x="700" y="300" />
            </Array>
          </mxGeometry>
        </mxCell>
        <mxCell id="XwNhUvzAYBpl0VFSliFA-44" value="" style="endArrow=none;html=1;rounded=0;entryX=1;entryY=0.25;entryDx=0;entryDy=0;exitX=0.996;exitY=0.502;exitDx=0;exitDy=0;exitPerimeter=0;" edge="1" parent="1" source="XwNhUvzAYBpl0VFSliFA-41" target="XwNhUvzAYBpl0VFSliFA-20">
          <mxGeometry width="50" height="50" relative="1" as="geometry">
            <mxPoint x="1030" y="177.5" as="sourcePoint" />
            <mxPoint x="1040" y="292.5" as="targetPoint" />
            <Array as="points">
              <mxPoint x="960" y="185" />
              <mxPoint x="960" y="210" />
              <mxPoint x="960" y="300" />
            </Array>
          </mxGeometry>
        </mxCell>
        <mxCell id="XwNhUvzAYBpl0VFSliFA-45" value="(1, n)" style="text;html=1;align=center;verticalAlign=middle;whiteSpace=wrap;rounded=0;" vertex="1" parent="1">
          <mxGeometry x="700" y="260" width="60" height="30" as="geometry" />
        </mxCell>
        <mxCell id="XwNhUvzAYBpl0VFSliFA-47" value="(1, 1)" style="text;html=1;align=center;verticalAlign=middle;whiteSpace=wrap;rounded=0;" vertex="1" parent="1">
          <mxGeometry x="900" y="260" width="60" height="30" as="geometry" />
        </mxCell>
      </root>
    </mxGraphModel>
  </diagram>
</mxfile>
